<svg width="2195" height="866" viewBox="0 0 2195 866" fill="none" xmlns="http://www.w3.org/2000/svg">
<path d="M495 0C511.569 0 525 13.4315 525 30V75C525 91.5685 511.569 105 495 105H450C433.431 105 420 91.5685 420 75V30C420 13.4315 433.431 7.24793e-07 450 0L495 0Z" fill="white"/>
<circle cx="262.5" cy="335.5" r="212.5" stroke="white" stroke-width="100"/>
<path d="M495 567C511.569 567 525 580.431 525 597V642C525 658.569 511.569 672 495 672H450C445.551 672 440 677.551 440 682V727C440 743.569 426.569 757 410 757H45C28.4315 757 15 743.569 15 727L15 682C15 665.431 28.4315 652 45 652H410C414.449 652 420 646.449 420 642V597C420 580.431 433.431 567 450 567H495Z" fill="white"/>
<path d="M749 561V221H864C904.667 221 935.667 232.333 957 255C978.333 277.667 989 311 989 355V426.5C989 470.833 978.333 504.333 957 527C935.667 549.667 904.667 561 864 561H749ZM861.5 278.5H809V503.5H861.5C885.167 503.5 902 497.667 912 486C922.333 474.333 927.5 454.5 927.5 426.5V355C927.5 327.333 922.333 307.667 912 296C902 284.333 885.167 278.5 861.5 278.5ZM1258.84 355V426.5C1258.84 469.833 1248 504 1226.34 529C1204.67 553.667 1173 566 1131.34 566C1089.34 566 1057.5 553.667 1035.84 529C1014.5 504 1003.84 469.833 1003.84 426.5V355C1003.84 311.667 1014.5 277.667 1035.84 253C1057.5 228.333 1089.34 216 1131.34 216C1173 216 1204.67 228.333 1226.34 253C1248 277.667 1258.84 311.667 1258.84 355ZM1197.34 355C1197.34 327.667 1192 307.167 1181.34 293.5C1170.67 279.5 1154 272.5 1131.34 272.5C1108.67 272.5 1092 279.5 1081.34 293.5C1070.67 307.167 1065.34 327.667 1065.34 355V426.5C1065.34 453.833 1070.67 474.5 1081.34 488.5C1092 502.5 1108.67 502.5 1131.34 509.5C1154 509.5 1170.67 502.5 1181.34 488.5C1192 474.5 1197.34 453.833 1197.34 426.5V355ZM1288.16 561V221H1403.16C1443.83 221 1474.83 232.333 1496.16 255C1517.49 277.667 1528.16 311 1528.16 355V426.5C1528.16 470.833 1517.49 504.333 1496.16 527C1474.83 549.667 1443.83 561 1403.16 561H1288.16ZM1400.66 278.5H1348.16V503.5H1400.66C1424.33 503.5 1441.16 497.667 1451.16 486C1461.49 474.333 1466.66 454.5 1466.66 426.5V355C1466.66 327.333 1461.49 307.667 1451.16 296C1441.16 284.333 1424.33 278.5 1400.66 278.5ZM1798 355V426.5C1798 469.833 1787.16 504 1765.5 529C1743.83 553.667 1712.16 566 1670.5 566C1628.5 566 1596.66 553.667 1575 529C1553.66 504 1543 469.833 1543 426.5V355C1543 311.667 1553.66 277.667 1575 253C1596.66 228.333 1628.5 216 1670.5 216C1712.16 216 1743.83 228.333 1765.5 253C1787.16 277.667 1798 311.667 1798 355ZM1736.5 355C1736.5 327.667 1731.16 307.167 1720.5 293.5C1709.83 279.5 1693.16 272.5 1670.5 272.5C1647.83 272.5 1631.16 279.5 1620.5 293.5C1609.83 307.167 1604.5 327.667 1604.5 355V426.5C1604.5 453.833 1609.83 474.5 1620.5 488.5C1631.16 502.5 1647.83 509.5 1670.5 509.5C1693.16 509.5 1709.83 502.5 1720.5 488.5C1731.16 474.5 1736.5 453.833 1736.5 426.5V355Z" fill="white"/>
</svg>
