<svg width="215" height="55" viewBox="0 0 215 55" fill="none" xmlns="http://www.w3.org/2000/svg">
<path d="M1.17847 19.4125L0.0494385 27.1111L1.17847 34.8235L4.48794 41.914L9.6956 47.8089L16.3922 52.0176L24.0343 54.2153H31.994L39.6291 52.0176L46.3256 47.8089L51.5333 41.914L54.8428 34.8235L55.9718 27.1111L54.8428 19.3917L51.5333 12.3012L46.3256 6.41323L39.6291 2.19764L31.994 0H24.0343L16.3922 2.19764L9.6956 6.41323L4.48794 12.3012L1.17847 19.3917V19.3986" fill="#B5CA8C"/>
<path d="M27.9294 13.718C30.1157 13.718 31.888 11.9823 31.888 9.84107C31.888 7.69989 30.1157 5.96411 27.9294 5.96411C25.7431 5.96411 23.9707 7.69989 23.9707 9.84107C23.9707 11.9823 25.7431 13.718 27.9294 13.718Z" fill="white" stroke="white" stroke-miterlimit="10"/>
<path d="M29.249 27.3667L1.12903 19.3848L0 27.0834L1.13609 34.8028L4.43851 41.8933L9.65322 47.7813L16.3498 51.9969L23.9849 54.1945H29.249V27.3667Z" fill="#8AB174"/>
<path d="M26.7581 27.3945L54.8709 19.4194L56 27.1181L54.8709 34.8305L51.5615 41.921L46.3468 47.8159L39.6502 52.0246L32.0151 54.2222H26.7581V27.3945Z" fill="#8AB174"/>
<path d="M24.0343 54.2154V25.584H31.9587V54.2293H24.0343V54.2154Z" fill="white"/>
<path d="M24.0273 29.6057L1.08679 19.3639L4.3751 12.301L30.1029 23.7868L26.8146 30.8496L24.0273 29.6057Z" fill="white"/>
<path d="M54.9168 19.2866L51.6294 12.2251L25.8893 23.7187L29.1767 30.7802L54.9168 19.2866Z" fill="white"/>
<path d="M66.5803 37V18.8182H73.7536C75.1326 18.8182 76.3074 19.0816 77.2781 19.6083C78.2487 20.1291 78.9885 20.8542 79.4975 21.7834C80.0124 22.7067 80.2699 23.772 80.2699 24.9794C80.2699 26.1868 80.0095 27.2521 79.4886 28.1754C78.9678 29.0987 78.2132 29.8178 77.2248 30.3327C76.2423 30.8477 75.0527 31.1051 73.6559 31.1051H69.0838V28.0245H73.0344C73.7743 28.0245 74.3839 27.8973 74.8633 27.6428C75.3486 27.3823 75.7096 27.0243 75.9464 26.5685C76.189 26.1069 76.3104 25.5772 76.3104 24.9794C76.3104 24.3757 76.189 23.849 75.9464 23.3991C75.7096 22.9434 75.3486 22.5913 74.8633 22.3427C74.378 22.0882 73.7624 21.9609 73.0167 21.9609H70.4244V37H66.5803ZM88.6373 37.2663C87.2582 37.2663 86.0656 36.9734 85.0595 36.3874C84.0592 35.7956 83.2869 34.9729 82.7424 33.9194C82.1979 32.86 81.9256 31.6319 81.9256 30.2351C81.9256 28.8265 82.1979 27.5954 82.7424 26.5419C83.2869 25.4825 84.0592 24.6598 85.0595 24.0739C86.0656 23.482 87.2582 23.1861 88.6373 23.1861C90.0163 23.1861 91.2059 23.482 92.2061 24.0739C93.2123 24.6598 93.9876 25.4825 94.5321 26.5419C95.0766 27.5954 95.3489 28.8265 95.3489 30.2351C95.3489 31.6319 95.0766 32.86 94.5321 33.9194C93.9876 34.9729 93.2123 35.7956 92.2061 36.3874C91.2059 36.9734 90.0163 37.2663 88.6373 37.2663ZM88.655 34.3366C89.2824 34.3366 89.8062 34.1591 90.2264 33.804C90.6466 33.4429 90.9632 32.9517 91.1763 32.3303C91.3953 31.7088 91.5048 31.0015 91.5048 30.2085C91.5048 29.4154 91.3953 28.7081 91.1763 28.0866C90.9632 27.4652 90.6466 26.974 90.2264 26.6129C89.8062 26.2519 89.2824 26.0714 88.655 26.0714C88.0217 26.0714 87.4891 26.2519 87.057 26.6129C86.6309 26.974 86.3083 27.4652 86.0893 28.0866C85.8762 28.7081 85.7697 29.4154 85.7697 30.2085C85.7697 31.0015 85.8762 31.7088 86.0893 32.3303C86.3083 32.9517 86.6309 33.4429 87.057 33.804C87.4891 34.1591 88.0217 34.3366 88.655 34.3366ZM103.969 37.2663C102.573 37.2663 101.371 36.9704 100.365 36.3786C99.3646 35.7808 98.5952 34.9522 98.0566 33.8928C97.524 32.8333 97.2576 31.6141 97.2576 30.2351C97.2576 28.8383 97.5269 27.6132 98.0655 26.5597C98.61 25.5002 99.3824 24.6746 100.383 24.0827C101.383 23.485 102.573 23.1861 103.952 23.1861C105.141 23.1861 106.183 23.4021 107.077 23.8342C107.97 24.2662 108.677 24.8729 109.198 25.6541C109.719 26.4354 110.006 27.3527 110.059 28.4062H106.491C106.39 27.7256 106.124 27.1781 105.692 26.7638C105.265 26.3436 104.706 26.1335 104.014 26.1335C103.428 26.1335 102.916 26.2933 102.478 26.6129C102.046 26.9266 101.708 27.3853 101.466 27.989C101.223 28.5927 101.102 29.3236 101.102 30.1818C101.102 31.0518 101.22 31.7917 101.457 32.4013C101.7 33.0109 102.04 33.4755 102.478 33.7951C102.916 34.1147 103.428 34.2745 104.014 34.2745C104.446 34.2745 104.833 34.1857 105.177 34.0082C105.526 33.8306 105.813 33.5732 106.038 33.2358C106.269 32.8925 106.42 32.4812 106.491 32.0018H110.059C110 33.0434 109.716 33.9608 109.207 34.7539C108.704 35.5411 108.009 36.1566 107.121 36.6005C106.233 37.0444 105.183 37.2663 103.969 37.2663ZM115.908 33.076L115.917 28.5394H116.467L120.835 23.3636H125.176L119.308 30.2173H118.411L115.908 33.076ZM112.481 37V18.8182H116.263V37H112.481ZM121.004 37L116.991 31.0607L119.512 28.3885L125.434 37H121.004ZM132.685 37.2663C131.282 37.2663 130.075 36.9822 129.062 36.4141C128.056 35.84 127.281 35.0291 126.737 33.9815C126.192 32.928 125.92 31.6822 125.92 30.244C125.92 28.8413 126.192 27.6102 126.737 26.5508C127.281 25.4914 128.047 24.6657 129.036 24.0739C130.03 23.482 131.196 23.1861 132.534 23.1861C133.433 23.1861 134.271 23.3311 135.046 23.6211C135.827 23.9052 136.508 24.3343 137.088 24.9084C137.674 25.4825 138.13 26.2045 138.455 27.0746C138.781 27.9387 138.944 28.9508 138.944 30.1108V31.1495H127.429V28.8058H135.384C135.384 28.2612 135.265 27.7789 135.028 27.3587C134.792 26.9384 134.463 26.61 134.043 26.3732C133.629 26.1306 133.146 26.0092 132.596 26.0092C132.022 26.0092 131.513 26.1424 131.069 26.4087C130.631 26.6692 130.288 27.0213 130.039 27.4652C129.79 27.9032 129.663 28.3915 129.657 28.93V31.1584C129.657 31.8331 129.782 32.4161 130.03 32.9073C130.285 33.3986 130.643 33.7773 131.104 34.0437C131.566 34.31 132.114 34.4432 132.747 34.4432C133.167 34.4432 133.552 34.384 133.901 34.2656C134.25 34.1473 134.549 33.9697 134.798 33.733C135.046 33.4962 135.236 33.2062 135.366 32.8629L138.864 33.0938C138.686 33.9342 138.322 34.6681 137.772 35.2955C137.227 35.9169 136.523 36.4022 135.659 36.7514C134.801 37.0947 133.809 37.2663 132.685 37.2663ZM148.665 23.3636V26.2045H140.453V23.3636H148.665ZM142.317 20.0966H146.099V32.8097C146.099 33.1589 146.152 33.4311 146.259 33.6264C146.365 33.8158 146.513 33.949 146.703 34.0259C146.898 34.1029 147.123 34.1413 147.377 34.1413C147.555 34.1413 147.733 34.1265 147.91 34.0969C148.088 34.0614 148.224 34.0348 148.319 34.017L148.913 36.8313C148.724 36.8905 148.458 36.9586 148.114 37.0355C147.771 37.1184 147.354 37.1687 146.863 37.1864C145.951 37.2219 145.152 37.1006 144.466 36.8224C143.785 36.5443 143.255 36.1122 142.876 35.5263C142.498 34.9403 142.311 34.2005 142.317 33.3068V20.0966Z" fill="white"/>
<path d="M149.988 18.8182H154.293L158.439 26.6484H158.617L162.763 18.8182H167.069L160.437 30.5724V37H156.619V30.5724L149.988 18.8182ZM172.402 37.2663C171.023 37.2663 169.83 36.9734 168.824 36.3874C167.824 35.7956 167.052 34.9729 166.507 33.9194C165.963 32.86 165.69 31.6319 165.69 30.2351C165.69 28.8265 165.963 27.5954 166.507 26.5419C167.052 25.4825 167.824 24.6598 168.824 24.0739C169.83 23.482 171.023 23.1861 172.402 23.1861C173.781 23.1861 174.971 23.482 175.971 24.0739C176.977 24.6598 177.752 25.4825 178.297 26.5419C178.841 27.5954 179.114 28.8265 179.114 30.2351C179.114 31.6319 178.841 32.86 178.297 33.9194C177.752 34.9729 176.977 35.7956 175.971 36.3874C174.971 36.9734 173.781 37.2663 172.402 37.2663ZM172.42 34.3366C173.047 34.3366 173.571 34.1591 173.991 33.804C174.411 33.4429 174.728 32.9517 174.941 32.3303C175.16 31.7088 175.269 31.0015 175.269 30.2085C175.269 29.4154 175.16 28.7081 174.941 28.0866C174.728 27.4652 174.411 26.974 173.991 26.6129C173.571 26.2519 173.047 26.0714 172.42 26.0714C171.786 26.0714 171.254 26.2519 170.822 26.6129C170.396 26.974 170.073 27.4652 169.854 28.0866C169.641 28.7081 169.534 29.4154 169.534 30.2085C169.534 31.0015 169.641 31.7088 169.854 32.3303C170.073 32.9517 170.396 33.4429 170.822 33.804C171.254 34.1591 171.786 34.3366 172.42 34.3366ZM187.716 42.3977C186.491 42.3977 185.44 42.229 184.565 41.8917C183.695 41.5603 183.002 41.1075 182.487 40.5334C181.972 39.9593 181.638 39.3142 181.484 38.598L184.982 38.1275C185.088 38.3997 185.257 38.6542 185.488 38.891C185.719 39.1277 186.023 39.3171 186.402 39.4592C186.787 39.6071 187.255 39.6811 187.805 39.6811C188.628 39.6811 189.305 39.4799 189.838 39.0774C190.377 38.6809 190.646 38.015 190.646 37.0799V34.5852H190.486C190.32 34.964 190.072 35.3221 189.74 35.6594C189.409 35.9968 188.983 36.272 188.462 36.4851C187.941 36.6982 187.32 36.8047 186.598 36.8047C185.574 36.8047 184.641 36.5679 183.801 36.0945C182.967 35.6151 182.301 34.8841 181.804 33.9016C181.312 32.9132 181.067 31.6644 181.067 30.1552C181.067 28.6104 181.318 27.3202 181.821 26.2844C182.324 25.2487 182.993 24.4734 183.828 23.9585C184.668 23.4435 185.588 23.1861 186.589 23.1861C187.352 23.1861 187.991 23.3163 188.506 23.5767C189.021 23.8312 189.436 24.1508 189.749 24.5355C190.069 24.9143 190.314 25.2872 190.486 25.6541H190.628V23.3636H194.383V37.1332C194.383 38.2932 194.099 39.2638 193.531 40.0451C192.963 40.8263 192.176 41.4123 191.17 41.8029C190.169 42.1995 189.018 42.3977 187.716 42.3977ZM187.796 33.9638C188.406 33.9638 188.921 33.8129 189.341 33.511C189.767 33.2032 190.092 32.7653 190.317 32.1971C190.548 31.623 190.664 30.9364 190.664 30.1374C190.664 29.3384 190.551 28.646 190.326 28.06C190.101 27.4682 189.776 27.0095 189.35 26.6839C188.924 26.3584 188.406 26.1957 187.796 26.1957C187.175 26.1957 186.651 26.3643 186.225 26.7017C185.799 27.0331 185.476 27.4948 185.257 28.0866C185.038 28.6785 184.929 29.3621 184.929 30.1374C184.929 30.9246 185.038 31.6052 185.257 32.1793C185.482 32.7475 185.804 33.1884 186.225 33.5021C186.651 33.8099 187.175 33.9638 187.796 33.9638ZM201.282 37.2575C200.411 37.2575 199.636 37.1065 198.956 36.8047C198.275 36.4969 197.736 36.0442 197.34 35.4464C196.949 34.8427 196.754 34.091 196.754 33.1914C196.754 32.4338 196.893 31.7976 197.171 31.2827C197.449 30.7678 197.828 30.3535 198.307 30.0398C198.787 29.7261 199.331 29.4893 199.941 29.3295C200.556 29.1697 201.202 29.0573 201.876 28.9922C202.669 28.9093 203.309 28.8324 203.794 28.7614C204.279 28.6844 204.631 28.572 204.85 28.424C205.069 28.276 205.179 28.0571 205.179 27.767V27.7138C205.179 27.1515 205.001 26.7165 204.646 26.4087C204.297 26.101 203.8 25.9471 203.155 25.9471C202.474 25.9471 201.933 26.098 201.53 26.3999C201.128 26.6958 200.861 27.0687 200.731 27.5185L197.233 27.2344C197.411 26.4058 197.76 25.6896 198.281 25.0859C198.802 24.4763 199.473 24.0088 200.296 23.6832C201.125 23.3518 202.083 23.1861 203.172 23.1861C203.93 23.1861 204.655 23.2749 205.348 23.4524C206.046 23.63 206.664 23.9052 207.203 24.2781C207.748 24.6509 208.177 25.1303 208.49 25.7163C208.804 26.2963 208.961 26.9917 208.961 27.8026V37H205.374V35.109H205.268C205.049 35.5352 204.756 35.911 204.389 36.2365C204.022 36.5561 203.581 36.8076 203.066 36.9911C202.551 37.1687 201.956 37.2575 201.282 37.2575ZM202.365 34.6474C202.921 34.6474 203.412 34.5379 203.838 34.3189C204.264 34.094 204.599 33.7921 204.842 33.4134C205.084 33.0346 205.206 32.6055 205.206 32.1261V30.679C205.087 30.7559 204.924 30.8269 204.717 30.892C204.516 30.9512 204.288 31.0075 204.034 31.0607C203.779 31.1081 203.525 31.1525 203.27 31.1939C203.016 31.2294 202.785 31.262 202.578 31.2915C202.134 31.3567 201.746 31.4602 201.415 31.6023C201.083 31.7443 200.826 31.9367 200.642 32.1793C200.459 32.4161 200.367 32.712 200.367 33.0671C200.367 33.582 200.554 33.9756 200.926 34.2479C201.305 34.5142 201.785 34.6474 202.365 34.6474Z" fill="#8AB174"/>
</svg>
